<?xml version="1.0" encoding="UTF-8" standalone="no"?>
<!DOCTYPE svg PUBLIC "-//W3C//DTD SVG 1.1//EN" "http://www.w3.org/Graphics/SVG/1.1/DTD/svg11.dtd">
<svg version="1.1" xmlns="http://www.w3.org/2000/svg" xmlns:xlink="http://www.w3.org/1999/xlink" preserveAspectRatio="xMidYMid meet" viewBox="0 0 350 350" width="350" height="350"><defs><path d="M39.75 92.27L39.75 174.85L39.75 257.42L107.42 291.26L175 325L242.68 291.26L310.26 257.42L310.26 174.85L310.26 92.27C269.83 72.03 247.37 60.79 242.88 58.54C205.8 40.1 175.2 24.9 174.7 25C174.29 25 143.8 40.1 106.92 58.64C97.96 63.12 75.57 74.34 39.75 92.27Z" id="d4eQ73U8Qf"></path><path d="M39.75 92.28L39.75 174.85L39.75 257.43L107.43 291.27L175.01 325L242.68 291.27L310.26 257.43L310.26 174.85L310.26 92.28C269.84 72.04 247.38 60.79 242.89 58.54C205.8 40.1 175.21 24.9 174.7 25.01C174.3 25.01 143.8 40.1 106.92 58.64C97.97 63.13 75.57 74.34 39.75 92.28Z" id="b1KyT7zx2I"></path></defs><g><g><g><use xlink:href="#d4eQ73U8Qf" opacity="1" fill="#ffffff" fill-opacity="1"></use><g><use xlink:href="#d4eQ73U8Qf" opacity="1" fill-opacity="0" stroke="#ffffff" stroke-width="40" stroke-opacity="1"></use></g></g><g><use xlink:href="#b1KyT7zx2I" opacity="1" fill="#ff0000" fill-opacity="0.52"></use></g></g></g></svg>